<?xml version="1.0" encoding="iso-8859-1"?>
<!-- Generator: Adobe Illustrator 19.0.0, SVG Export Plug-In . SVG Version: 6.00 Build 0)  -->
<svg version="1.1" id="Capa_1" xmlns="http://www.w3.org/2000/svg" xmlns:xlink="http://www.w3.org/1999/xlink" x="0px" y="0px"
	 viewBox="0 0 469.333 469.333" style="enable-background:new 0 0 469.333 469.333;" xml:space="preserve">
<g>
	<g>
		<g>
			<path d="M426.667,0h-384C19.135,0,0,19.135,0,42.667v384c0,23.531,19.135,42.667,42.667,42.667h384
				c23.531,0,42.667-19.135,42.667-42.667v-384C469.333,19.135,450.198,0,426.667,0z M448,426.667
				c0,11.76-9.573,21.333-21.333,21.333h-384c-11.76,0-21.333-9.573-21.333-21.333v-384c0-11.76,9.573-21.333,21.333-21.333h384
				c11.76,0,21.333,9.573,21.333,21.333V426.667z"/>
			<path d="M394.667,277.333h-7.836c-11.096-63.974-60.659-113.465-123.189-125.292c1.893-4.083,3.025-8.586,3.025-13.375
				c0-17.646-14.354-32-32-32s-32,14.354-32,32c0,4.789,1.132,9.292,3.025,13.375c-62.53,11.827-112.092,61.318-123.189,125.292
				h-7.836C68.771,277.333,64,282.104,64,288c0,29.406,23.927,53.333,53.333,53.333H352c29.406,0,53.333-23.927,53.333-53.333
				C405.333,282.104,400.563,277.333,394.667,277.333z M234.667,128c5.885,0,10.667,4.781,10.667,10.667
				s-4.781,10.667-10.667,10.667S224,144.552,224,138.667S228.781,128,234.667,128z M234.667,170.667
				c63.928,0,117.503,45.195,130.017,106.667H104.65C117.164,215.862,170.738,170.667,234.667,170.667z M352,320H117.333
				c-13.906,0-25.771-8.917-30.177-21.333h295.021C377.771,311.083,365.906,320,352,320z"/>
		</g>
	</g>
</g>
<g>
</g>
<g>
</g>
<g>
</g>
<g>
</g>
<g>
</g>
<g>
</g>
<g>
</g>
<g>
</g>
<g>
</g>
<g>
</g>
<g>
</g>
<g>
</g>
<g>
</g>
<g>
</g>
<g>
</g>
</svg>
